<svg width="1022" height="864" viewBox="0 0 1022 864" fill="none" xmlns="http://www.w3.org/2000/svg">
<path d="M107.244 186.698H116.244V188.198H107.244M117.744 186.698H126.744V188.198H117.744M128.244 186.698H137.244V188.198H128.244M138.744 186.698H147.744V188.198H138.744M149.244 186.698H158.244V188.198H149.244M159.744 186.698H168.744V188.198H159.744M170.244 186.698H177.331V188.198H170.244" fill="url(#paint0_linear_26_2814)"/>
<path d="M174.331 185.198L177.331 187.448L174.331 189.698" stroke="url(#paint1_linear_26_2814)" stroke-width="1.5" stroke-linecap="round" stroke-linejoin="round"/>
<path d="M236.112 186.698H245.112V188.198H236.112M246.612 186.698H255.612V188.198H246.612M257.112 186.698H266.112V188.198H257.112M267.612 186.698H276.612V188.198H267.612M278.112 186.698H287.112V188.198H278.112M288.612 186.698H297.612V188.198H288.612M299.112 186.698H308.112V188.198H299.112M309.612 186.698H318.612V188.198H309.612M320.112 186.698H329.112V188.198H320.112M330.612 186.698H339.612V188.198H330.612M341.112 186.698H350.112V188.198H341.112M351.612 186.698H360.612V188.198H351.612M362.112 186.698H371.112V188.198H362.112M372.612 186.698H381.612V188.198H372.612M383.112 186.698H384.482V188.198H383.112" fill="url(#paint2_linear_26_2814)"/>
<path d="M381.482 185.198L384.482 187.448L381.482 189.698" stroke="url(#paint3_linear_26_2814)" stroke-width="1.5" stroke-linecap="round" stroke-linejoin="round"/>
<path d="M442.043 186.698H451.043V188.198H442.043M452.543 186.698H461.543V188.198H452.543M463.043 186.698H472.043V188.198H463.043M473.543 186.698H482.543V188.198H473.543M484.043 186.698H493.043V188.198H484.043M494.543 186.698H503.543V188.198H494.543M505.043 186.698H514.043V188.198H505.043M515.543 186.698H524.543V188.198H515.543M526.043 186.698H535.043V188.198H526.043M536.543 186.698H545.543V188.198H536.543M547.043 186.698H556.043V188.198H547.043M557.543 186.698H566.543V188.198H557.543M568.043 186.698H577.043V188.198H568.043M578.543 186.698H587.543V188.198H578.543M589.043 186.698H598.043V188.198H589.043M599.543 186.698H608.543V188.198H599.543M610.043 186.698H619.043V188.198H610.043M620.543 186.698H625.418V188.198H620.543" fill="url(#paint4_linear_26_2814)"/>
<path d="M622.418 185.198L625.418 187.448L622.418 189.698" stroke="url(#paint5_linear_26_2814)" stroke-width="1.5" stroke-linecap="round" stroke-linejoin="round"/>
<path d="M682.979 186.142H691.979V187.642H682.979M693.479 186.142H702.479V187.642H693.479M703.979 186.142H712.979V187.642H703.979M714.479 186.142H723.479V187.642H714.479M724.979 186.142H733.979V187.642H724.979M735.479 186.142H744.479V187.642H735.479M745.979 186.142H754.979V187.642H745.979M756.479 186.142H765.479V187.642H756.479M766.979 186.142H775.979V187.642H766.979M777.479 186.142H786.479V187.642H777.479M787.979 186.142H796.979V187.642H787.979M798.479 186.142H807.479V187.642H798.479M808.979 186.142H817.979V187.642H808.979M819.479 186.142H828.479V187.642H819.479M829.979 186.142H838.979V187.642H829.979M840.479 186.142H849.479V187.642H840.479M850.979 186.142H859.979V187.642H850.979M861.479 186.142H867.105V187.642H861.479" fill="url(#paint6_linear_26_2814)"/>
<path d="M867.853 188.617V197.617H866.353V188.617M867.853 199.117V208.117H866.353V199.117M867.853 209.617V218.617H866.353V209.617M867.853 220.117V229.117H866.353V220.117M867.853 230.617V239.617H866.353V230.617M867.853 241.117V250.117H866.353V241.117M867.853 251.617V260.617H866.353V251.617M867.853 262.117V271.117H866.353V262.117M867.853 272.617V281.617H866.353V272.617M867.853 283.117V292.117H866.353V283.117M867.853 293.617V302.617H866.353V293.617M867.853 304.117V313.117H866.353V304.117M867.853 314.617V323.617H866.353V314.617M867.853 325.117V334.117H866.353V325.117M867.853 335.617V344.617H866.353V335.617M867.853 346.117V355.086H866.353V346.117" fill="url(#paint7_linear_26_2814)"/>
<path d="M670.183 354.334H679.183V355.834H670.183M680.683 354.334H689.683V355.834H680.683M691.183 354.334H700.183V355.834H691.183M701.683 354.334H710.683V355.834H701.683M712.183 354.334H721.183V355.834H712.183M722.683 354.334H731.683V355.834H722.683M733.183 354.334H742.183V355.834H733.183M743.683 354.334H752.683V355.834H743.683M754.183 354.334H763.183V355.834H754.183M764.683 354.334H773.683V355.834H764.683M775.183 354.334H784.183V355.834H775.183M785.683 354.334H794.683V355.834H785.683M796.183 354.334H805.183V355.834H796.183M806.683 354.334H815.683V355.834H806.683M817.183 354.334H826.183V355.834H817.183M827.683 354.334H836.683V355.834H827.683M838.183 354.334H847.183V355.834H838.183M848.683 354.334H857.683V355.834H848.683M859.183 354.334H867.105V355.834H859.183" fill="url(#paint8_linear_26_2814)"/>
<path d="M673.183 352.834L670.183 355.084L673.183 357.334" stroke="url(#paint9_linear_26_2814)" stroke-width="1.5" stroke-linecap="round" stroke-linejoin="round"/>
<path d="M469.038 354.334H478.038V355.834H469.038M479.538 354.334H488.538V355.834H479.538M490.038 354.334H499.038V355.834H490.038M500.538 354.334H509.538V355.834H500.538M511.038 354.334H520.038V355.834H511.038M521.538 354.334H530.538V355.834H521.538M532.038 354.334H541.038V355.834H532.038M542.538 354.334H551.538V355.834H542.538M553.038 354.334H562.038V355.834H553.038M563.538 354.334H572.538V355.834H563.538M574.038 354.334H583.038V355.834H574.038M584.538 354.334H593.538V355.834H584.538M595.038 354.334H604.038V355.834H595.038M605.538 354.334H613.552V355.834H605.538" fill="url(#paint10_linear_26_2814)"/>
<path d="M472.038 352.834L469.038 355.084L472.038 357.334" stroke="url(#paint11_linear_26_2814)" stroke-width="1.5" stroke-linecap="round" stroke-linejoin="round"/>
<path d="M256.538 354.33L265.538 354.287L265.545 355.787L256.545 355.83M267.038 354.279L276.038 354.236L276.045 355.736L267.045 355.779M277.538 354.229L286.538 354.186L286.545 355.686L277.545 355.729M288.038 354.178L297.038 354.135L297.045 355.635L288.045 355.678M298.538 354.128L307.537 354.084L307.545 355.584L298.545 355.628M309.037 354.077L318.037 354.034L318.045 355.534L309.045 355.577M319.537 354.027L328.537 353.983L328.544 355.483L319.545 355.527M330.037 353.976L339.037 353.933L339.044 355.433L330.044 355.476M340.537 353.925L349.537 353.882L349.544 355.382L340.544 355.425M351.037 353.875L360.037 353.831L360.044 355.331L351.044 355.375M361.537 353.824L370.537 353.781L370.544 355.281L361.544 355.324M372.037 353.774L381.037 353.73L381.044 355.23L372.044 355.274M382.537 353.723L391.537 353.68L391.544 355.18L382.544 355.223M393.036 353.673L402.036 353.629L402.044 355.129L393.044 355.172M403.536 353.622L411.473 353.584L411.48 355.084L403.544 355.122" fill="url(#paint12_linear_26_2814)"/>
<path d="M259.531 352.816L256.542 355.08L259.553 357.316" stroke="url(#paint13_linear_26_2814)" stroke-width="1.5" stroke-linecap="round" stroke-linejoin="round"/>
<path d="M107.994 354.334L116.994 354.334L116.994 355.834L107.994 355.834M118.494 354.334L127.494 354.334L127.494 355.834L118.494 355.834M128.994 354.334L137.994 354.334L137.994 355.834L128.994 355.834M139.494 354.334L148.494 354.334L148.494 355.834L139.494 355.834M149.994 354.334L158.994 354.334L158.994 355.834L149.994 355.834M160.494 354.334L169.494 354.334L169.494 355.834L160.494 355.834M170.994 354.334L179.994 354.334L179.994 355.834L170.994 355.834M181.494 354.334L190.494 354.334L190.494 355.834L181.494 355.834M191.994 354.334L199.724 354.334L199.724 355.834L191.994 355.834" fill="url(#paint14_linear_26_2814)"/>
<path d="M110.994 352.834L107.994 355.084L110.994 357.334" stroke="url(#paint15_linear_26_2814)" stroke-width="1.5" stroke-linecap="round" stroke-linejoin="round"/>
<defs>
<linearGradient id="paint0_linear_26_2814" x1="202.178" y1="714.459" x2="230.993" y2="685.645" gradientUnits="userSpaceOnUse">
<stop stop-color="#916A2A"/>
<stop offset="0.35119" stop-color="#936C2C"/>
<stop offset="0.67381" stop-color="#B89749"/>
<stop offset="1" stop-color="#DBD2B7"/>
</linearGradient>
<linearGradient id="paint1_linear_26_2814" x1="202.178" y1="714.459" x2="230.992" y2="685.645" gradientUnits="userSpaceOnUse">
<stop stop-color="#916A2A"/>
<stop offset="0.35119" stop-color="#936C2C"/>
<stop offset="0.67381" stop-color="#B89749"/>
<stop offset="1" stop-color="#DBD2B7"/>
</linearGradient>
<linearGradient id="paint2_linear_26_2814" x1="442.377" y1="729.137" x2="500.547" y2="670.967" gradientUnits="userSpaceOnUse">
<stop stop-color="#916A2A"/>
<stop offset="0.35119" stop-color="#936C2C"/>
<stop offset="0.67381" stop-color="#B89749"/>
<stop offset="1" stop-color="#DBD2B7"/>
</linearGradient>
<linearGradient id="paint3_linear_26_2814" x1="442.377" y1="729.137" x2="500.547" y2="670.967" gradientUnits="userSpaceOnUse">
<stop stop-color="#916A2A"/>
<stop offset="0.35119" stop-color="#936C2C"/>
<stop offset="0.67381" stop-color="#B89749"/>
<stop offset="1" stop-color="#DBD2B7"/>
</linearGradient>
<linearGradient id="paint4_linear_26_2814" x1="809.319" y1="735.7" x2="880.616" y2="664.404" gradientUnits="userSpaceOnUse">
<stop stop-color="#916A2A"/>
<stop offset="0.35119" stop-color="#936C2C"/>
<stop offset="0.67381" stop-color="#B89749"/>
<stop offset="1" stop-color="#DBD2B7"/>
</linearGradient>
<linearGradient id="paint5_linear_26_2814" x1="809.319" y1="735.7" x2="880.616" y2="664.404" gradientUnits="userSpaceOnUse">
<stop stop-color="#916A2A"/>
<stop offset="0.35119" stop-color="#936C2C"/>
<stop offset="0.67381" stop-color="#B89749"/>
<stop offset="1" stop-color="#DBD2B7"/>
</linearGradient>
<linearGradient id="paint6_linear_26_2814" x1="1231.8" y1="734.718" x2="1301.41" y2="665.108" gradientUnits="userSpaceOnUse">
<stop stop-color="#916A2A"/>
<stop offset="0.35119" stop-color="#936C2C"/>
<stop offset="0.67381" stop-color="#B89749"/>
<stop offset="1" stop-color="#DBD2B7"/>
</linearGradient>
<linearGradient id="paint7_linear_26_2814" x1="386.307" y1="872.784" x2="449.295" y2="809.795" gradientUnits="userSpaceOnUse">
<stop stop-color="#916A2A"/>
<stop offset="0.35119" stop-color="#936C2C"/>
<stop offset="0.67381" stop-color="#B89749"/>
<stop offset="1" stop-color="#DBD2B7"/>
</linearGradient>
<linearGradient id="paint8_linear_26_2814" x1="1209.79" y1="780.15" x2="1286.17" y2="703.772" gradientUnits="userSpaceOnUse">
<stop stop-color="#916A2A"/>
<stop offset="0.35119" stop-color="#936C2C"/>
<stop offset="0.67381" stop-color="#B89749"/>
<stop offset="1" stop-color="#DBD2B7"/>
</linearGradient>
<linearGradient id="paint9_linear_26_2814" x1="1209.79" y1="780.15" x2="1286.17" y2="703.772" gradientUnits="userSpaceOnUse">
<stop stop-color="#916A2A"/>
<stop offset="0.35119" stop-color="#936C2C"/>
<stop offset="0.67381" stop-color="#B89749"/>
<stop offset="1" stop-color="#DBD2B7"/>
</linearGradient>
<linearGradient id="paint10_linear_26_2814" x1="847.961" y1="770.323" x2="904.685" y2="713.599" gradientUnits="userSpaceOnUse">
<stop stop-color="#916A2A"/>
<stop offset="0.35119" stop-color="#936C2C"/>
<stop offset="0.67381" stop-color="#B89749"/>
<stop offset="1" stop-color="#DBD2B7"/>
</linearGradient>
<linearGradient id="paint11_linear_26_2814" x1="847.961" y1="770.323" x2="904.685" y2="713.599" gradientUnits="userSpaceOnUse">
<stop stop-color="#916A2A"/>
<stop offset="0.35119" stop-color="#936C2C"/>
<stop offset="0.67381" stop-color="#B89749"/>
<stop offset="1" stop-color="#DBD2B7"/>
</linearGradient>
<linearGradient id="paint12_linear_26_2814" x1="479.909" y1="771.337" x2="540.542" y2="710.704" gradientUnits="userSpaceOnUse">
<stop stop-color="#916A2A"/>
<stop offset="0.35119" stop-color="#936C2C"/>
<stop offset="0.67381" stop-color="#B89749"/>
<stop offset="1" stop-color="#DBD2B7"/>
</linearGradient>
<linearGradient id="paint13_linear_26_2814" x1="479.909" y1="771.337" x2="540.542" y2="710.704" gradientUnits="userSpaceOnUse">
<stop stop-color="#916A2A"/>
<stop offset="0.35119" stop-color="#936C2C"/>
<stop offset="0.67381" stop-color="#B89749"/>
<stop offset="1" stop-color="#DBD2B7"/>
</linearGradient>
<linearGradient id="paint14_linear_26_2814" x1="206.237" y1="760.426" x2="243.167" y2="723.496" gradientUnits="userSpaceOnUse">
<stop stop-color="#916A2A"/>
<stop offset="0.35119" stop-color="#936C2C"/>
<stop offset="0.67381" stop-color="#B89749"/>
<stop offset="1" stop-color="#DBD2B7"/>
</linearGradient>
<linearGradient id="paint15_linear_26_2814" x1="206.237" y1="760.426" x2="243.167" y2="723.496" gradientUnits="userSpaceOnUse">
<stop stop-color="#916A2A"/>
<stop offset="0.35119" stop-color="#936C2C"/>
<stop offset="0.67381" stop-color="#B89749"/>
<stop offset="1" stop-color="#DBD2B7"/>
</linearGradient>
</defs>
</svg>
