<svg width="117" height="56" viewBox="0 0 117 56" fill="none" xmlns="http://www.w3.org/2000/svg">
<g clip-path="url(#clip0_1_183)">
<mask id="mask0_1_183" style="mask-type:luminance" maskUnits="userSpaceOnUse" x="0" y="-9" width="117" height="64">
<path fill-rule="evenodd" clip-rule="evenodd" d="M0 -8.16003H116.256V54.72H0V-8.16003Z" fill="white"/>
</mask>
<g mask="url(#mask0_1_183)">
<path fill-rule="evenodd" clip-rule="evenodd" d="M-8.93941e-05 26.0484V34.5525L18.4293 50.6411C19.7565 51.7996 21.7903 51.6617 22.9488 50.3346L22.9489 50.3345C24.1075 49.0073 23.9695 46.9736 22.6424 45.815L-9.15527e-05 26.0484L-8.93941e-05 26.0484Z" fill="#A07934"/>
<path fill-rule="evenodd" clip-rule="evenodd" d="M100.994 -7.91367H79.1074L104.29 13.1356C107.146 15.5223 111.434 15.1388 113.821 12.2835L114.144 11.8967C116.531 9.04145 116.148 4.75268 113.292 2.36599L100.994 -7.91369V-7.91367ZM68.1872 -7.91367H44.0617L72.2588 15.6549C75.1141 18.0416 79.4028 17.6581 81.7895 14.8028L82.1127 14.4161C84.4994 11.5608 84.1159 7.27199 81.2605 4.8853L68.1787 -6.04926C68.0961 -6.74691 68.102 -7.36711 68.1872 -7.91369L68.1872 -7.91367Z" fill="#A07934"/>
<path fill-rule="evenodd" clip-rule="evenodd" d="M-8.42051e-05 -3.41673V14.8771L32.4113 41.9683C35.2666 44.355 39.5554 43.9715 41.9421 41.1162L42.2653 40.7294C44.652 37.8741 44.2685 33.5853 41.4131 31.1987L28.3313 20.2641C27.7768 15.5788 31.1817 14.358 36.1766 15.8224L64.443 39.449C67.2983 41.8357 71.587 41.4521 73.9737 38.5968L74.2969 38.2101C76.6836 35.3548 76.3001 31.066 73.4447 28.6793L29.6655 -7.91372H7.77914L24.0483 5.68493C26.1012 11.5725 23.3546 13.9689 16.6283 10.4822L-9.15527e-05 -3.41674L-8.42051e-05 -3.41673Z" fill="#A07934"/>
<path d="M55.7133 48.3036C55.7133 47.883 55.6723 47.4664 55.5902 47.0538C55.5082 46.6412 55.3866 46.2407 55.2257 45.852C55.0647 45.4634 54.8673 45.0942 54.6337 44.7445C54.4 44.3947 54.1344 44.0711 53.837 43.7737C53.5395 43.4762 53.2159 43.2107 52.8662 42.977C52.5164 42.7433 52.1472 42.5459 51.7586 42.385C51.37 42.224 50.9694 42.1025 50.5568 42.0204C50.1443 41.9383 49.7277 41.8973 49.307 41.8973C48.8864 41.8973 48.4698 41.9383 48.0572 42.0204C47.6446 42.1025 47.2441 42.224 46.8554 42.385C46.4668 42.5459 46.0976 42.7433 45.7479 42.977C45.3981 43.2107 45.0745 43.4762 44.7771 43.7737C44.4796 44.0711 44.2141 44.3947 43.9804 44.7445C43.7467 45.0942 43.5493 45.4634 43.3884 45.852C43.2274 46.2407 43.1059 46.6412 43.0238 47.0538C42.9418 47.4664 42.9007 47.883 42.9007 48.3036C42.9007 48.7242 42.9418 49.1408 43.0238 49.5534C43.1059 49.966 43.2274 50.3666 43.3884 50.7552C43.5493 51.1438 43.7467 51.513 43.9804 51.8628C44.2141 52.2125 44.4796 52.5361 44.7771 52.8335C45.0745 53.131 45.3981 53.3966 45.7479 53.6302C46.0976 53.8639 46.4668 54.0613 46.8554 54.2223C47.2441 54.3832 47.6446 54.5047 48.0572 54.5868C48.4698 54.6689 48.8864 54.7099 49.307 54.7099C49.7277 54.7099 50.1443 54.6689 50.5568 54.5868C50.9694 54.5047 51.37 54.3832 51.7586 54.2223C52.1472 54.0613 52.5164 53.8639 52.8662 53.6302C53.2159 53.3966 53.5395 53.131 53.837 52.8335C54.1344 52.5361 54.4 52.2125 54.6337 51.8628C54.8673 51.513 55.0647 51.1438 55.2257 50.7552C55.3866 50.3666 55.5082 49.966 55.5902 49.5534C55.6723 49.1408 55.7133 48.7242 55.7133 48.3036Z" fill="#A07934"/>
</g>
</g>
<defs>
<clipPath id="clip0_1_183">
<rect width="116.2" height="63" fill="white" transform="translate(0 -7.90002)"/>
</clipPath>
</defs>
</svg>
